<svg width="725" height="300" viewBox="0 0 725 300" fill="none" xmlns="http://www.w3.org/2000/svg">
<path d="M266.781 85.227C280.769 76.2837 285.021 57.4539 273.452 45.561C264.18 36.0297 253.648 27.7361 242.113 20.9259C221.911 8.99969 199.191 1.95373 175.769 0.351693C152.347 -1.25035 128.875 2.63602 107.229 11.6999C85.5835 20.7637 66.366 34.7535 51.1141 52.5495C35.8619 70.3458 24.9986 91.4547 19.3935 114.187C13.7884 136.919 13.5969 160.645 18.8344 183.464C24.0719 206.284 34.5931 227.564 49.5559 245.603C58.1001 255.903 67.9572 264.983 78.8445 272.63C92.4287 282.172 110.419 275.049 117.099 259.878C123.778 244.707 116.34 227.293 104.148 216.035C101.225 213.336 98.4764 210.44 95.9233 207.362C86.9455 196.538 80.6328 183.77 77.4903 170.078C74.3478 156.387 74.4628 142.152 77.8258 128.512C81.1888 114.873 87.7067 102.208 96.858 91.5297C106.009 80.8521 117.54 72.4581 130.527 67.02C143.515 61.5816 157.598 59.2497 171.651 60.2109C185.704 61.1721 199.336 65.3997 211.457 72.5556C214.905 74.5905 218.202 76.8465 221.332 79.3047C234.384 89.5584 252.794 94.1703 266.781 85.227Z" fill="url(#paint0_linear_4_92)"/>
<path d="M170.445 240.642C157.82 238.587 146.255 234.277 135.75 227.712C125.245 221.147 116.392 213.098 109.192 203.567C101.884 193.896 96.5518 183.162 93.195 171.367C89.7306 159.432 88.7179 147.128 90.1575 134.457L90.3808 132.784C91.5975 124.623 94.7941 118.679 99.971 114.953C105.165 111.103 111.303 109.648 118.386 110.589C121.989 111.067 125.191 112.186 127.991 113.945C130.792 115.704 133.153 117.909 135.075 120.56C137.014 123.088 138.39 126.045 139.202 129.431C140.031 132.694 140.213 136.06 139.75 139.529C138.923 145.725 139.317 151.767 140.933 157.656C142.566 163.422 145.152 168.683 148.69 173.44C152.244 178.074 156.652 182.001 161.913 185.222C167.049 188.426 172.778 190.511 179.099 191.476L239.677 199.52C243.156 199.982 246.304 201.031 249.121 202.666C251.937 204.301 254.315 206.383 256.254 208.91C258.069 211.421 259.399 214.245 260.244 217.384C261.106 220.399 261.314 223.579 260.867 226.925C260.42 230.27 259.369 233.409 257.712 236.342C256.056 239.274 254.014 241.778 251.588 243.851C249.053 245.785 246.203 247.235 243.039 248.202C239.875 249.169 236.553 249.421 233.074 248.959L170.445 240.642Z" fill="url(#paint1_linear_4_92)"/>
<path d="M226.511 197.821L237.52 199.338C264.842 203.104 283.93 228.242 280.153 255.486L219.673 247.15L226.511 197.821Z" fill="url(#paint2_linear_4_92)"/>
<path d="M260.077 35.2691C263.57 33.7691 320.316 89.3183 320.316 89.3183C309.756 104.368 265.179 111.04 250.398 100.079C238.479 91.2413 227.984 83.6654 225.646 82.4999C222.638 79.4999 256.584 36.7691 260.077 35.2691Z" fill="url(#paint3_linear_4_92)"/>
<path d="M319.971 222.623C321.846 225.67 324.277 228.072 327.266 229.83C330.254 231.588 333.535 232.467 337.109 232.467C339.395 232.467 341.211 232.291 342.559 231.939C343.965 231.529 345.225 231.002 346.338 230.357C347.51 229.596 348.652 229.068 349.766 228.775C350.938 228.424 352.051 228.248 353.105 228.248C354.746 228.248 356.24 228.57 357.588 229.215C358.994 229.859 360.195 230.738 361.191 231.852C362.246 232.965 363.066 234.254 363.652 235.719C364.238 237.184 364.531 238.707 364.531 240.289C364.531 242.281 363.975 244.186 362.861 246.002C361.748 247.76 360.049 249.312 357.764 250.66C355.479 251.949 352.607 253.004 349.15 253.824C345.752 254.586 341.738 254.967 337.109 254.967C331.191 254.967 325.596 253.854 320.322 251.627C315.107 249.342 310.537 246.266 306.611 242.398C302.686 238.531 299.58 234.02 297.295 228.863C295.01 223.648 293.867 218.082 293.867 212.164C293.867 206.188 295.01 200.592 297.295 195.377C299.58 190.162 302.686 185.621 306.611 181.754C310.537 177.828 315.107 174.752 320.322 172.525C325.596 170.299 331.191 169.186 337.109 169.186C342.969 169.186 348.477 170.299 353.633 172.525C358.848 174.693 363.389 177.711 367.256 181.578C371.182 185.387 374.287 189.869 376.572 195.025C378.916 200.182 380.146 205.689 380.264 211.549C380.264 214.889 379.18 217.584 377.012 219.635C374.902 221.627 372.148 222.623 368.75 222.623H319.971ZM356.27 203.111C354.629 199.596 352.168 196.783 348.887 194.674C345.605 192.564 341.826 191.51 337.549 191.51C333.154 191.51 329.404 192.623 326.299 194.85C323.193 197.018 320.85 199.771 319.268 203.111H356.27ZM426.143 231.061C427.783 231.061 429.307 231.354 430.713 231.939C432.178 232.525 433.408 233.346 434.404 234.4C435.4 235.455 436.191 236.686 436.777 238.092C437.363 239.498 437.656 240.992 437.656 242.574C437.656 244.215 437.363 245.738 436.777 247.145C436.191 248.551 435.4 249.752 434.404 250.748C433.408 251.744 432.178 252.535 430.713 253.121C429.307 253.707 427.783 254 426.143 254C422.041 254 418.145 253.326 414.453 251.979C410.82 250.572 407.627 248.609 404.873 246.09C402.119 243.57 399.922 240.582 398.281 237.125C396.699 233.609 395.908 229.742 395.908 225.523V150.465C395.908 148.824 396.201 147.301 396.787 145.895C397.373 144.488 398.164 143.258 399.16 142.203C400.215 141.148 401.416 140.328 402.764 139.742C404.111 139.098 405.576 138.775 407.158 138.775C408.799 138.775 410.352 139.098 411.816 139.742C413.281 140.328 414.57 141.148 415.684 142.203C416.797 143.258 417.676 144.488 418.32 145.895C418.965 147.301 419.287 148.824 419.287 150.465V226.051C419.404 227.75 420.049 229.01 421.221 229.83C422.451 230.65 424.092 231.061 426.143 231.061ZM467.1 212.164C467.1 214.859 467.598 217.379 468.594 219.723C469.648 222.066 471.055 224.117 472.812 225.875C474.629 227.633 476.709 229.01 479.053 230.006C481.396 231.002 483.887 231.5 486.523 231.5C489.219 231.5 491.738 231.002 494.082 230.006C496.484 229.01 498.564 227.633 500.322 225.875C502.08 224.117 503.457 222.066 504.453 219.723C505.508 217.379 506.035 214.859 506.035 212.164C506.035 209.469 505.508 206.949 504.453 204.605C503.457 202.262 502.08 200.211 500.322 198.453C498.564 196.695 496.484 195.318 494.082 194.322C491.738 193.326 489.219 192.828 486.523 192.828C483.887 192.828 481.396 193.326 479.053 194.322C476.709 195.318 474.629 196.695 472.812 198.453C471.055 200.211 469.648 202.262 468.594 204.605C467.598 206.949 467.1 209.469 467.1 212.164ZM443.633 212.164C443.633 206.246 444.746 200.68 446.973 195.465C449.258 190.25 452.334 185.709 456.201 181.842C460.127 177.916 464.668 174.84 469.824 172.613C475.039 170.328 480.605 169.186 486.523 169.186C492.441 169.186 498.008 170.328 503.223 172.613C508.438 174.84 512.979 177.916 516.846 181.842C520.713 185.709 523.76 190.25 525.986 195.465C528.271 200.68 529.414 206.246 529.414 212.164C529.414 218.082 528.271 223.648 525.986 228.863C523.76 234.02 520.713 238.531 516.846 242.398C512.979 246.266 508.438 249.342 503.223 251.627C498.008 253.854 492.441 254.967 486.523 254.967C480.605 254.967 475.039 253.854 469.824 251.627C464.668 249.342 460.127 246.266 456.201 242.398C452.334 238.531 449.258 234.02 446.973 228.863C444.746 223.648 443.633 218.082 443.633 212.164ZM560.615 212.164C560.615 214.859 561.113 217.379 562.109 219.723C563.164 222.066 564.57 224.117 566.328 225.875C568.145 227.633 570.225 229.01 572.568 230.006C574.912 231.002 577.402 231.5 580.039 231.5C582.734 231.5 585.254 231.002 587.598 230.006C590 229.01 592.08 227.633 593.838 225.875C595.596 224.117 596.973 222.066 597.969 219.723C599.023 217.379 599.551 214.859 599.551 212.164C599.551 209.469 599.023 206.949 597.969 204.605C596.973 202.262 595.596 200.211 593.838 198.453C592.08 196.695 590 195.318 587.598 194.322C585.254 193.326 582.734 192.828 580.039 192.828C577.402 192.828 574.912 193.326 572.568 194.322C570.225 195.318 568.145 196.695 566.328 198.453C564.57 200.211 563.164 202.262 562.109 204.605C561.113 206.949 560.615 209.469 560.615 212.164ZM537.148 212.164C537.148 206.246 538.262 200.68 540.488 195.465C542.773 190.25 545.85 185.709 549.717 181.842C553.643 177.916 558.184 174.84 563.34 172.613C568.555 170.328 574.121 169.186 580.039 169.186C585.957 169.186 591.523 170.328 596.738 172.613C601.953 174.84 606.494 177.916 610.361 181.842C614.229 185.709 617.275 190.25 619.502 195.465C621.787 200.68 622.93 206.246 622.93 212.164C622.93 218.082 621.787 223.648 619.502 228.863C617.275 234.02 614.229 238.531 610.361 242.398C606.494 246.266 601.953 249.342 596.738 251.627C591.523 253.854 585.957 254.967 580.039 254.967C574.121 254.967 568.555 253.854 563.34 251.627C558.184 249.342 553.643 246.266 549.717 242.398C545.85 238.531 542.773 234.02 540.488 228.863C538.262 223.648 537.148 218.082 537.148 212.164ZM634.619 211.461C634.678 205.66 635.85 200.182 638.135 195.025C640.479 189.869 643.584 185.387 647.451 181.578C651.377 177.77 655.918 174.752 661.074 172.525C666.289 170.299 671.797 169.186 677.598 169.186C683.457 169.186 688.994 170.328 694.209 172.613C699.424 174.84 703.965 177.916 707.832 181.842C711.699 185.709 714.746 190.25 716.973 195.465C719.258 200.68 720.4 206.246 720.4 212.164C720.4 218.082 719.258 223.648 716.973 228.863C714.746 234.02 711.699 238.531 707.832 242.398C703.965 246.266 699.424 249.342 694.209 251.627C688.994 253.854 683.457 254.967 677.598 254.967C674.082 254.967 670.684 254.557 667.402 253.736C664.121 252.916 660.986 251.744 657.998 250.221V272.193C657.998 273.893 657.705 275.475 657.119 276.939C656.592 278.463 655.83 279.781 654.834 280.895C653.838 282.008 652.637 282.857 651.23 283.443C649.824 284.088 648.271 284.41 646.572 284.41C644.932 284.41 643.379 284.088 641.914 283.443C640.508 282.857 639.248 282.008 638.135 280.895C637.08 279.781 636.23 278.463 635.586 276.939C634.941 275.475 634.619 273.893 634.619 272.193V211.461ZM658.086 212.164C658.086 214.859 658.584 217.379 659.58 219.723C660.635 222.066 662.041 224.117 663.799 225.875C665.615 227.633 667.695 229.01 670.039 230.006C672.441 231.002 674.961 231.5 677.598 231.5C680.293 231.5 682.812 231.002 685.156 230.006C687.5 229.01 689.551 227.633 691.309 225.875C693.066 224.117 694.443 222.066 695.439 219.723C696.494 217.379 697.021 214.859 697.021 212.164C697.021 209.469 696.494 206.949 695.439 204.605C694.443 202.262 693.066 200.211 691.309 198.453C689.551 196.695 687.5 195.318 685.156 194.322C682.812 193.326 680.293 192.828 677.598 192.828C674.961 192.828 672.441 193.326 670.039 194.322C667.695 195.318 665.615 196.695 663.799 198.453C662.041 200.211 660.635 202.262 659.58 204.605C658.584 206.949 658.086 209.469 658.086 212.164Z" fill="#313131"/>
<defs>
<linearGradient id="paint0_linear_4_92" x1="234.019" y1="62.1622" x2="34.1" y2="367.752" gradientUnits="userSpaceOnUse">
<stop stop-color="#3BA8F0"/>
<stop offset="1" stop-color="#0352DE"/>
</linearGradient>
<linearGradient id="paint1_linear_4_92" x1="110.922" y1="137.162" x2="204.853" y2="220.364" gradientUnits="userSpaceOnUse">
<stop stop-color="#3BA8F0"/>
<stop offset="1" stop-color="#0352DE"/>
</linearGradient>
<linearGradient id="paint2_linear_4_92" x1="318.564" y1="195.27" x2="224.554" y2="207.457" gradientUnits="userSpaceOnUse">
<stop stop-color="#3BA8F0"/>
<stop offset="1" stop-color="#0352DE"/>
</linearGradient>
<linearGradient id="paint3_linear_4_92" x1="245.517" y1="53.3782" x2="325.279" y2="105.479" gradientUnits="userSpaceOnUse">
<stop stop-color="#3BA8F0"/>
<stop offset="1" stop-color="#0352DE"/>
</linearGradient>
</defs>
</svg>
