<svg width="258" height="222" viewBox="0 0 258 222" fill="none" xmlns="http://www.w3.org/2000/svg">
<path d="M197.219 63.068C207.56 56.45 210.703 42.5159 202.151 33.7152C195.296 26.662 187.511 20.5247 178.983 15.4851C164.049 6.65977 147.253 1.44576 129.938 0.260253C112.623 -0.925256 95.2712 1.95066 79.2696 8.65791C63.2681 15.3651 49.0614 25.7176 37.7863 38.8867C26.5111 52.0559 18.4804 67.6765 14.3368 84.4986C10.1931 101.32 10.0516 118.877 13.9234 135.763C17.7953 152.65 25.5731 168.397 36.6344 181.746C42.9508 189.368 50.2377 196.088 58.2862 201.747C68.3284 208.807 81.6279 203.536 86.5657 192.31C91.5033 181.083 86.0048 168.197 76.9921 159.866C74.8311 157.869 72.7992 155.725 70.9117 153.448C64.2749 145.438 59.6082 135.99 57.2851 125.858C54.962 115.726 55.047 105.192 57.5331 95.099C60.0193 85.0058 64.8376 75.6336 71.6028 67.732C78.368 59.8306 86.892 53.619 96.4929 49.5948C106.094 45.5704 116.505 43.8448 126.894 44.5561C137.283 45.2674 147.36 48.3958 156.321 53.6912C158.869 55.197 161.307 56.8664 163.621 58.6855C173.269 66.2732 186.879 69.686 197.219 63.068Z" fill="url(#paint0_linear_4_67)"/>
<path d="M126.003 178.075C116.669 176.555 108.12 173.365 100.354 168.507C92.588 163.649 86.0437 157.693 80.7208 150.64C75.3184 143.483 71.3764 135.54 68.8949 126.812C66.3338 117.979 65.5851 108.875 66.6494 99.4979L66.8144 98.2602C67.7139 92.2207 70.077 87.8225 73.9041 85.065C77.7434 82.2161 82.2811 81.1396 87.5172 81.8356C90.181 82.1897 92.5482 83.0175 94.6182 84.3193C96.6884 85.6209 98.4339 87.2526 99.8549 89.2146C101.288 91.0848 102.305 93.273 102.906 95.779C103.518 98.1934 103.653 100.684 103.311 103.252C102.699 107.836 102.991 112.308 104.186 116.666C105.393 120.932 107.304 124.825 109.92 128.346C112.547 131.774 115.806 134.68 119.695 137.064C123.492 139.435 127.727 140.978 132.4 141.692L177.182 147.645C179.754 147.987 182.081 148.763 184.164 149.973C186.246 151.183 188.004 152.723 189.437 154.593C190.779 156.451 191.762 158.541 192.387 160.864C193.024 163.095 193.177 165.449 192.847 167.924C192.517 170.4 191.74 172.723 190.515 174.893C189.291 177.063 187.781 178.915 185.987 180.45C184.113 181.881 182.007 182.954 179.668 183.669C177.329 184.385 174.873 184.571 172.301 184.23L126.003 178.075Z" fill="url(#paint1_linear_4_67)"/>
<path d="M167.45 146.387L175.588 147.51C195.786 150.297 209.896 168.899 207.105 189.059L162.395 182.891L167.45 146.387Z" fill="url(#paint2_linear_4_67)"/>
<path d="M192.263 26.0992C194.845 24.9892 236.795 66.0956 236.795 66.0956C228.988 77.2327 196.035 82.1695 185.108 74.0588C176.297 67.5187 168.538 61.9125 166.81 61.05C164.586 58.83 189.681 27.2092 192.263 26.0992Z" fill="url(#paint3_linear_4_67)"/>
<defs>
<linearGradient id="paint0_linear_4_67" x1="173" y1="46" x2="25" y2="272" gradientUnits="userSpaceOnUse">
<stop stop-color="#3BA8F0"/>
<stop offset="1" stop-color="#0352DE"/>
</linearGradient>
<linearGradient id="paint1_linear_4_67" x1="82" y1="101.5" x2="151.5" y2="163" gradientUnits="userSpaceOnUse">
<stop stop-color="#3BA8F0"/>
<stop offset="1" stop-color="#0352DE"/>
</linearGradient>
<linearGradient id="paint2_linear_4_67" x1="235.5" y1="144.5" x2="166" y2="153.5" gradientUnits="userSpaceOnUse">
<stop stop-color="#3BA8F0"/>
<stop offset="1" stop-color="#0352DE"/>
</linearGradient>
<linearGradient id="paint3_linear_4_67" x1="181.5" y1="39.5" x2="240.5" y2="78" gradientUnits="userSpaceOnUse">
<stop stop-color="#3BA8F0"/>
<stop offset="1" stop-color="#0352DE"/>
</linearGradient>
</defs>
</svg>
